<?xml version="1.0" encoding="UTF-8"?>
<svg width="2783px" height="1521px" viewBox="0 0 2783 1521" version="1.1" xmlns="http://www.w3.org/2000/svg" xmlns:xlink="http://www.w3.org/1999/xlink">
    <title>userFlo</title>
    <g id="userFlo" stroke="none" stroke-width="1" fill="none" fill-rule="evenodd">
        <rect fill="#FFFFFF" x="0" y="0" width="2783" height="1521"></rect>
        <g id="userFlowTransparentVector" transform="translate(100.000000, 100.000000)">
            <g id="Group-3" transform="translate(0.000000, 479.000000)" stroke="#213A55" stroke-linejoin="round" stroke-width="12.15">
                <g id="icon" transform="translate(0.000000, -0.000000)">
                    <g id="Outlined-/-Icon" transform="translate(0.579594, 0.579594)">
                        <g id="icon" transform="translate(0.318348, 0.273269)">
                            <polyline id="Stroke-1" points="364.79237 175.615131 364.79237 328.192483 210.623681 394.2392 210.623681 170.303088 364.79237 104.256371"></polyline>
                            <polyline id="Stroke-3" points="53.5817221 104.251653 210.626483 170.29837 252.329533 228.315693 408.748655 155.013273 364.795172 104.251653 210.523766 42.6866774 53.5817221 104.251653 0.794587454 154.881179 157.437818 225.145451 210.626483 170.29837"></polyline>
                            <polyline id="Stroke-5" points="210.625549 394.238255 53.5807885 328.191538 53.5807885 178.557984"></polyline>
                            <polyline id="Stroke-7" stroke-linecap="round" points="209.18938 141.319901 210.5247 42.6838469 154.842817 0.83853398 4.30657071 64.0358069 53.582656 104.248823"></polyline>
                            <polyline id="Stroke-9" points="364.79237 104.251653 405.402885 61.8968368 252.96171 0.841364556 210.520965 42.6866774"></polyline>
                            <line x1="336.222139" y1="267.102101" x2="336.222139" y2="307.239633" id="Stroke-12" stroke-linecap="round"></line>
                            <line x1="303.375151" y1="281.052109" x2="303.375151" y2="321.189643" id="Stroke-13" stroke-linecap="round"></line>
                        </g>
                    </g>
                </g>
            </g>
            <g id="Group-2" transform="translate(772.000000, 527.000000)" stroke="#213A55" stroke-width="12.15">
                <g id="icon" transform="translate(0.140000, 0.000000)">
                    <g id="Outlined-/-Icon">
                        <g id="icon" transform="translate(0.387528, 0.387528)">
                            <path d="M294.013074,165.424763 C289.259994,185.887793 276.939894,202.625633 260.697774,213.356513 C243.260094,224.882003 221.309903,229.496573 199.352423,224.393573 C156.924623,214.537493 130.520243,172.153433 140.376323,129.732923 C150.239693,87.3051232 192.623753,60.9080332 235.044263,70.7641132 C277.464774,80.6201932 303.876444,123.004253 294.013074,165.424763 Z" id="Stroke-1" stroke-linecap="round"></path>
                            <line x1="300.050652" y1="280.11396" x2="260.699232" y2="213.359429" id="Stroke-3" stroke-linecap="round"></line>
                            <path d="M64.4852362,68.0383822 L31.5052762,68.0383822 C29.5369762,68.0383822 27.9477562,66.4491622 27.9477562,64.4881522 L27.9477562,31.5009022 C27.9477562,29.5398922 29.5369762,27.9433822 31.5052762,27.9433822 L64.4852362,27.9433822 C66.4535362,27.9433822 68.0427562,29.5398922 68.0427562,31.5009022 L68.0427562,64.4881522 C68.0427562,66.4491622 66.4535362,68.0383822 64.4852362,68.0383822 Z" id="Stroke-6" stroke-linecap="round"></path>
                            <path d="M91.9401052,95.4968962 L4.04457514,95.4968962 C2.08356514,95.4968962 0.494345154,93.9076762 0.494345154,91.9393762 L0.494345154,4.04384614 C0.494345154,2.08283614 2.08356514,0.486326154 4.04457514,0.486326154 L91.9401052,0.486326154 C93.9084052,0.486326154 95.4976252,2.08283614 95.4976252,4.04384614 L95.4976252,91.9393762 C95.4976252,93.9076762 93.9084052,95.4968962 91.9401052,95.4968962 Z" id="Stroke-8" stroke-linecap="round"></path>
                            <path d="M232.083794,46.2507592 L232.083794,31.5030892 C232.083794,29.5420792 233.673014,27.9455692 235.634024,27.9455692 L268.621275,27.9455692 C270.582285,27.9455692 272.178795,29.5420792 272.178795,31.5030892 L272.178795,62.4418492" id="Stroke-10"></path>
                            <path d="M204.62528,44.5777042 L204.62528,4.04530414 C204.62528,2.08429414 206.22179,0.487784154 208.17551,0.487784154 L296.078331,0.487784154 C298.039341,0.487784154 299.628561,2.08429414 299.628561,4.04530414 L299.628561,89.0394142" id="Stroke-12"></path>
                            <path d="M64.6419712,272.53965 L31.6620112,272.53965 C29.6937112,272.53965 28.1044912,270.95043 28.1044912,268.98942 L28.1044912,236.002169 C28.1044912,234.041159 29.6937112,232.444649 31.6620112,232.444649 L64.6419712,232.444649 C66.6102712,232.444649 68.1994912,234.041159 68.1994912,236.002169 L68.1994912,268.98942 C68.1994912,270.95043 66.6102712,272.53965 64.6419712,272.53965 Z" id="Stroke-14" stroke-linecap="round"></path>
                            <path d="M92.1004852,299.998164 L4.20495514,299.998164 C2.23665514,299.998164 0.647435154,298.401654 0.647435154,296.440644 L0.647435154,208.545113 C0.647435154,206.584103 2.23665514,204.994883 4.20495514,204.994883 L92.1004852,204.994883 C94.0614952,204.994883 95.6507152,206.584103 95.6507152,208.545113 L95.6507152,296.440644 C95.6507152,298.401654 94.0614952,299.998164 92.1004852,299.998164 Z" id="Stroke-16" stroke-linecap="round"></path>
                            <path d="M130.020149,84.7864282 L130.020149,25.9123882 C130.020149,23.9513782 131.616659,22.3621581 133.577669,22.3621581 L166.557629,22.3621581 C168.525929,22.3621581 170.115149,23.9513782 170.115149,25.9123882 L170.115149,47.6584582 C170.115149,49.6194682 168.525929,51.2159782 166.557629,51.2159782 L155.170649,51.2159782" id="Stroke-18" stroke-linecap="square"></path>
                            <path d="M134.356241,221.886542 L134.356241,266.406573 C134.356241,269.708943 136.419311,272.384373 138.963521,272.384373 L167.124791,272.384373 C169.661711,272.384373 171.717491,269.708943 171.717491,266.406573 L171.717491,248.546073" id="Stroke-20"></path>
                            <path d="M107.445935,169.453946 L46.0860052,169.453946 C44.1177052,169.453946 42.5284852,167.864726 42.5284852,165.903716 L42.5284852,135.642926 C42.5284852,133.681916 44.1177052,132.092696 46.0860052,132.092696 L108.539435,132.092696" id="Stroke-22" stroke-linecap="square"></path>
                        </g>
                    </g>
                </g>
            </g>
            <g id="Group-4" transform="translate(1454.000000, 507.000000)" stroke="#213A55" stroke-linecap="round" stroke-width="12.15">
                <g id="icon" transform="translate(0.015000, 0.000000)">
                    <g id="Outlined-/-Icon">
                        <g id="icon" transform="translate(0.328765, 0.328765)">
                            <path d="M224.419424,170.478527 C224.419424,199.886387 200.573834,223.731977 171.165974,223.731977 C141.758114,223.731977 117.919814,199.886387 117.919814,170.478527 C117.919814,141.070667 141.758114,117.225077 171.165974,117.225077 C200.573834,117.225077 224.419424,141.070667 224.419424,170.478527 Z" id="Stroke-1"></path>
                            <path d="M340.760534,40.8856555 C340.760534,63.4263355 322.484504,81.6950755 299.943824,81.6950755 C277.410434,81.6950755 259.141694,63.4263355 259.141694,40.8856555 C259.141694,18.3449756 277.410434,0.0762355768 299.943824,0.0762355768 C322.484504,0.0762355768 340.760534,18.3449756 340.760534,40.8856555 Z" id="Stroke-3"></path>
                            <path d="M64.5737815,40.7391265 C64.5737815,53.7955165 53.9887015,64.3805965 40.9323115,64.3805965 C27.8759215,64.3805965 17.2908416,53.7955165 17.2908416,40.7391265 C17.2908416,27.6827365 27.8759215,17.0976566 40.9323115,17.0976566 C53.9887015,17.0976566 64.5737815,27.6827365 64.5737815,40.7391265 Z" id="Stroke-5"></path>
                            <path d="M56.8420075,170.001761 C56.8420075,177.058481 51.1193575,182.781131 44.0626375,182.781131 C36.9986275,182.781131 31.2832675,177.058481 31.2832675,170.001761 C31.2832675,162.945041 36.9986275,157.222391 44.0626375,157.222391 C51.1193575,157.222391 56.8420075,162.945041 56.8420075,170.001761 Z" id="Stroke-7"></path>
                            <path d="M170.513519,56.6721505 C163.456799,56.6721505 157.734149,50.9495005 157.734149,43.8927805 C157.734149,36.8360605 163.456799,31.1134105 170.513519,31.1134105 C177.570239,31.1134105 183.292889,36.8360605 183.292889,43.8927805 C183.292889,50.9495005 177.570239,56.6721505 170.513519,56.6721505 Z" id="Stroke-9"></path>
                            <line x1="56.8135765" y1="169.994471" x2="99.9703765" y2="169.994471" id="Stroke-11"></line>
                            <line x1="120.846749" y1="120.00038" x2="59.8950595" y2="59.2746805" id="Stroke-13"></line>
                            <line x1="170.498939" y1="57.3092965" x2="170.498939" y2="99.4527865" id="Stroke-15"></line>
                            <path d="M276.090215,299.06465 C276.090215,286.00826 286.668005,275.42318 299.724395,275.42318 C312.780785,275.42318 323.365865,286.00826 323.365865,299.06465 C323.365865,312.12104 312.780785,322.70612 299.724395,322.70612 C286.668005,322.70612 276.090215,312.12104 276.090215,299.06465 Z" id="Stroke-17"></path>
                            <path d="M285.03869,169.49948 C285.03869,162.44276 290.76134,156.72011 297.82535,156.72011 C304.88207,156.72011 310.60472,162.44276 310.60472,169.49948 C310.60472,176.5562 304.88207,182.27885 297.82535,182.27885 C290.76134,182.27885 285.03869,176.5562 285.03869,169.49948 Z" id="Stroke-19"></path>
                            <path d="M170.143187,283.131626 C177.199907,283.131626 182.922557,288.854276 182.922557,295.918286 C182.922557,302.975006 177.199907,308.697656 170.143187,308.697656 C163.086467,308.697656 157.363817,302.975006 157.363817,295.918286 C157.363817,288.854276 163.086467,283.131626 170.143187,283.131626 Z" id="Stroke-21"></path>
                            <line x1="284.384048" y1="169.81295" x2="240.695078" y2="169.81295" id="Stroke-23"></line>
                            <line x1="219.813602" y1="219.807041" x2="280.758002" y2="280.525451" id="Stroke-25"></line>
                            <line x1="170.160683" y1="282.697871" x2="170.160683" y2="240.350261" id="Stroke-27"></line>
                            <line x1="265.838288" y1="69.0738985" x2="217.265018" y2="117.224348" id="Stroke-29"></line>
                            <path d="M0.0776935768,298.295555 C0.0776935768,275.754875 18.3464336,257.486135 40.8871135,257.486135 C63.4205035,257.486135 81.6965335,275.754875 81.6965335,298.295555 C81.6965335,320.836235 63.4205035,339.104975 40.8871135,339.104975 C18.3464336,339.104975 0.0776935768,320.836235 0.0776935768,298.295555 Z" id="Stroke-31"></path>
                            <line x1="74.9955655" y1="270.103667" x2="123.568835" y2="221.960507" id="Stroke-33"></line>
                        </g>
                    </g>
                </g>
            </g>
            <polygon id="Line" fill="#213A55" fill-rule="nonzero" points="1329.075 660 1367.55 679.2375 1329.075 698.475 1329.075 682.275 1161 682.275 1161 676.2 1329.075 676.2"></polygon>
            <g id="Group-6" transform="translate(2165.000000, 0.000000)">
                <g id="privacy-simple-filled-2">
                    <rect id="Rectangle" x="0" y="0" width="417.055814" height="437.4"></rect>
                    <path d="M349.204443,96.1002515 C348.157198,91.0069715 343.968213,87.3689143 338.906523,87.3689143 C278.166248,87.3689143 216.72781,32.4342515 216.204187,31.8885428 C212.189743,28.2504857 206.42989,28.2504857 202.415446,31.8885428 C202.392756,31.9063692 202.305485,31.9818591 202.157126,32.1115558 C197.723784,35.9578917 138.467806,87.3689143 79.5389184,87.3689143 C74.4772289,87.3689143 70.2882445,91.0069715 69.2409983,96.2821543 L69.2197042,96.4096683 C68.4197828,101.155514 47.9913275,222.34811 109.540251,321.690717 C110.363909,323.020427 111.20223,324.3465 112.055561,325.667115 C132.842698,357.854825 162.487268,387.525001 204.509938,409.88268 C206.080808,410.792195 207.651677,411.156 209.222546,411.156 C210.793415,411.156 212.538825,410.792195 213.935153,409.88268 C255.952413,387.528639 285.59297,357.865738 306.380803,325.679848 C307.239546,324.348318 308.084325,323.013152 308.91514,321.672528 C370.07955,222.926561 350.27089,102.577812 349.242842,96.3343604 C349.221897,96.2124854 349.209679,96.1340854 349.204443,96.1002515 Z M113.559406,286.194195 C122.598537,256.591323 143.966372,232.660183 171.341734,220.983839 C158.2255,209.616729 149.882091,192.485118 149.882091,173.409512 C149.882091,139.211774 176.586867,111.56254 209.226037,111.56254 C242.039748,111.56254 268.569984,139.211774 268.569984,173.409512 C268.569984,192.565156 260.246123,209.667662 247.155545,221.005667 C274.258276,232.581965 295.466755,256.176585 304.640629,285.388364 C300.039728,295.15109 294.716227,304.811951 288.565401,314.227244 C286.795557,271.443692 253.754942,237.004024 212.704639,235.152253 C211.554414,235.221376 210.393716,235.255937 209.226037,235.255937 C208.060103,235.255937 206.901151,235.221376 205.750925,235.152253 C164.466214,237.009481 131.279858,271.829326 129.855778,314.951216 C123.614889,305.559572 118.218081,295.927815 113.559406,286.194195 Z M209.407559,213.245691 L209.224292,213.245691 L209.042769,213.245691 C188.007085,213.143826 170.827013,195.355545 170.827013,173.227609 C170.827013,151.217363 187.932033,133.20898 209.226037,133.20898 C230.520041,133.20898 247.62506,151.03546 247.62506,173.227609 C247.62506,195.355545 230.444988,213.143826 209.407559,213.245691 Z" id="Shape" fill="#213A55" fill-rule="nonzero"></path>
                </g>
            </g>
            <g id="Group" transform="translate(2211.000000, 509.000000)" stroke="#213A55" stroke-linecap="round" stroke-width="9.09022137">
                <g id="makingMoneySign" transform="translate(0.030000, 0.000000)">
                    <g id="Outlined-/-Icon">
                        <g id="icon" transform="translate(0.464558, 0.464558)">
                            <path d="M36.5928489,274.898621 C13.9163927,246.037054 0.39116452,209.657677 0.39116452,170.113983 C0.39116452,76.3805297 76.3757458,0.389114208 170.116033,0.389114208 C210.267986,0.389114208 247.166776,14.3380736 276.226538,37.6501266" id="Stroke-1"></path>
                            <polyline id="Stroke-3" points="295.531598 95.7730689 302.215617 64.2939376 333.674246 70.971122"></polyline>
                            <polyline id="Stroke-5" points="43.7709928 244.450796 37.0938085 275.929928 5.62834609 269.259578"></polyline>
                            <path d="M302.713159,65.3293453 C325.389615,94.1840766 338.914845,130.570289 338.914845,170.113983 C338.914845,263.847435 262.930264,339.832017 169.189975,339.832017 C129.038022,339.832017 92.1392316,325.889892 63.0794691,302.57784" id="Stroke-9"></path>
                            <g id="$" stroke-linejoin="round" transform="translate(135.370755, 84.982500)">
                                <path d="M65.730285,47.9099902 C65.730285,28.3636777 51.5626256,18.1907105 33.5198756,18.1907105 C15.4771256,18.1907105 0.8583975,28.3636777 0.8583975,47.9099902 C0.8583975,67.4563027 11.7250538,71.5210473 33.5198756,83.31547 C55.2736913,95.0876808 66.1608506,99.1524254 66.1608506,118.698738 C66.1608506,138.222839 51.5626256,148.173689 33.5198756,148.173689 C15.4771256,148.173689 0.8583975,138.222839 0.8583975,118.698738" id="Stroke-1"></path>
                                <line x1="33.515775" y1="0.623462192" x2="33.515775" y2="16.1050301" id="Stroke-3"></line>
                                <line x1="33.515775" y1="150.270475" x2="33.515775" y2="165.729831" id="Stroke-5"></line>
                            </g>
                        </g>
                    </g>
                </g>
            </g>
            <g id="Group-8" transform="translate(2134.000000, 986.000000)" stroke="#213A55" stroke-width="12.15">
                <g id="icon" transform="translate(0.270000, 0.000000)">
                    <g id="Outlined-/-Icon">
                        <g id="icon">
                            <line x1="402.002032" y1="158.874788" x2="288.655963" y2="224.923171" id="Stroke-3" stroke-linecap="round"></line>
                            <line x1="256.131346" y1="224.923171" x2="204.232992" y2="172.719462" id="Stroke-5"></line>
                            <ellipse id="Oval" cx="357.770769" cy="229.012683" rx="20.3278846" ry="20.447561"></ellipse>
                            <ellipse id="Oval" cx="268.328077" cy="237.191707" rx="20.3278846" ry="20.447561"></ellipse>
                            <ellipse id="Oval" cx="292.721537" cy="139.043415" rx="20.3278846" ry="20.447561"></ellipse>
                            <line x1="378.098654" y1="134.953903" x2="361.836346" y2="208.565122" id="Stroke-11" stroke-linecap="round"></line>
                            <line x1="342.071647" y1="215.441832" x2="303.324439" y2="158.872367" id="Stroke-13" stroke-linecap="round"></line>
                            <line x1="278.509738" y1="157.274998" x2="177.05801" y2="230.673313" id="Stroke-15" stroke-linecap="round"></line>
                            <path d="M201.237915,152.056118 C213.06818,192.264648 189.349942,234.239965 148.261415,245.824926 C107.181132,257.393753 64.2789055,234.183492 52.4486413,193.98303 C40.6183773,153.7745 64.3366141,111.799183 105.416897,100.222289 C146.505425,88.6453945 189.407651,111.855655 201.237915,152.056118 Z" id="Stroke-17"></path>
                            <path d="M65.7414066,272.954389 L22.1301888,331.00828 C19.3189552,334.75161 13.8943463,335.566427 10.0690901,332.815403 L3.82007253,328.313725 C-0.00518361058,325.562701 -0.837836351,320.254271 1.98164124,316.510941 L45.5846149,258.457053 C48.3958484,254.713723 53.8287015,253.90697 57.6539577,256.649927 L63.9029753,261.151604 C67.7282315,263.902629 68.5526401,269.211059 65.7414066,272.954389 Z" id="Stroke-19"></path>
                            <line x1="60.7743445" y1="258.899152" x2="80.9064036" y2="233.986645" id="Stroke-21"></line>
                            <path d="M93.6253803,84.9553099 L93.6253803,45.4567219 L93.6253803,15.2357843 C93.6253803,6.96657422 100.476216,0.270530906 108.918161,0.270530906 L405.870157,0.270530906 C414.320346,0.270530906 421.162939,6.96657422 421.162939,15.2357843 L421.162939,279.245443 C421.162939,287.514652 414.320346,294.218765 405.870157,294.218765 L108.918161,294.218765 C100.476216,294.218765 93.6253803,287.514652 93.6253803,279.245443 L93.6253803,266.063113" id="Stroke-23"></path>
                            <line x1="421.162939" y1="48.1117435" x2="93.6253803" y2="48.1117435" id="Stroke-25"></line>
                        </g>
                    </g>
                </g>
            </g>
            <g id="Group-2" transform="translate(1915.000000, 518.000000)" fill="#213A55" fill-rule="nonzero">
                <polygon id="Line" points="180.2625 142.1 218.7375 161.3375 180.2625 180.575 180.2625 164.375 12.1875 164.375 12.1875 158.3 180.2625 158.3"></polygon>
                <polygon id="Line" transform="translate(87.275000, 87.237500) rotate(-45.000000) translate(-87.275000, -87.237500) " points="152.075 68 190.55 87.2375 152.075 106.475 152.075 90.275 -16 90.275 -16 84.2 152.075 84.2"></polygon>
                <polygon id="Line" transform="translate(87.275000, 235.237500) rotate(45.000000) translate(-87.275000, -235.237500) " points="152.075 216 190.55 235.2375 152.075 254.475 152.075 238.275 -16 238.275 -16 232.2 152.075 232.2"></polygon>
            </g>
            <polygon id="Line" fill="#213A55" fill-rule="nonzero" points="656.075 660 694.55 679.2375 656.075 698.475 656.075 682.275 488 682.275 488 676.2 656.075 676.2"></polygon>
        </g>
    </g>
</svg>